<svg xmlns="http://www.w3.org/2000/svg" viewBox="0 0 920 620" width="920" height="620" font-family="'Segoe UI',system-ui,sans-serif">

  <!-- Background -->
  <rect width="920" height="620" fill="#0d1117" rx="10"/>

  <!-- ── HEADER ── -->
  <rect x="0" y="0" width="920" height="62" fill="#161b22" rx="10"/>
  <rect x="0" y="52" width="920" height="10" fill="#161b22"/>
  <text x="460" y="24" text-anchor="middle" fill="#f0f6fc" font-size="17" font-weight="700" letter-spacing="0.5">Linux Kernel — Contribution Map</text>
  <text x="460" y="46" text-anchor="middle" fill="#8b949e" font-size="11">Md Shofiqul Islam  ·  14 patches  ·  9 subsystems  ·  11 merged or in linux-next</text>

  <!-- ── LEGEND ── -->
  <rect x="10" y="68" width="900" height="26" fill="#0d1117"/>
  <rect x="30" y="73" width="12" height="12" fill="#238636" rx="2"/>
  <text x="47" y="83" fill="#3fb950" font-size="10" font-weight="600">Merged / Applied</text>
  <rect x="165" y="73" width="12" height="12" fill="#1f4d2e" rx="2" stroke="#2ea043" stroke-width="1"/>
  <text x="182" y="83" fill="#56d364" font-size="10" font-weight="600">In linux-next</text>
  <rect x="290" y="73" width="12" height="12" fill="#1f3358" rx="2" stroke="#388bfd" stroke-width="1"/>
  <text x="307" y="83" fill="#79c0ff" font-size="10" font-weight="600">Under Review</text>
  <rect x="415" y="73" width="12" height="12" fill="#1c2128" rx="2" stroke="#30363d" stroke-width="1"/>
  <text x="432" y="83" fill="#484f58" font-size="10">Not contributed</text>

  <!-- ── USER SPACE ── -->
  <rect x="10" y="100" width="900" height="30" fill="#1c2128" rx="4" stroke="#30363d" stroke-width="1"/>
  <text x="460" y="120" text-anchor="middle" fill="#6e7681" font-size="11" font-weight="600" letter-spacing="1">USER SPACE</text>

  <!-- ── SYSCALL INTERFACE ── -->
  <rect x="10" y="135" width="900" height="22" fill="#161b22" rx="3" stroke="#21262d" stroke-width="1"/>
  <text x="460" y="150" text-anchor="middle" fill="#58a6ff" font-size="10" font-weight="600" letter-spacing="2">SYSTEM CALL INTERFACE</text>

  <!-- ── CORE KERNEL ── -->
  <text x="14" y="173" fill="#6e7681" font-size="9" font-weight="700" letter-spacing="1">CORE KERNEL</text>
  <rect x="10"   y="178" width="216" height="28" fill="#161b22" rx="3" stroke="#21262d" stroke-width="1"/>
  <text x="118"  y="196" text-anchor="middle" fill="#6e7681" font-size="10">Process Scheduler</text>
  <rect x="231"  y="178" width="216" height="28" fill="#161b22" rx="3" stroke="#21262d" stroke-width="1"/>
  <text x="339"  y="196" text-anchor="middle" fill="#6e7681" font-size="10">Memory Management</text>
  <rect x="452"  y="178" width="216" height="28" fill="#161b22" rx="3" stroke="#21262d" stroke-width="1"/>
  <text x="560"  y="196" text-anchor="middle" fill="#6e7681" font-size="10">Virtual File System (VFS)</text>
  <rect x="673"  y="178" width="237" height="28" fill="#161b22" rx="3" stroke="#21262d" stroke-width="1"/>
  <text x="791"  y="196" text-anchor="middle" fill="#6e7681" font-size="10">IPC / Signals / Timers</text>

  <!-- ── SUBSYSTEMS SECTION ── -->
  <text x="14" y="222" fill="#6e7681" font-size="9" font-weight="700" letter-spacing="1">SUBSYSTEMS</text>

  <!-- NETWORKING / SCTP — MERGED -->
  <rect x="10" y="227" width="143" height="70" fill="#0f2a1a" rx="4" stroke="#238636" stroke-width="1.5"/>
  <text x="81"  y="244" text-anchor="middle" fill="#3fb950" font-size="10" font-weight="700">NETWORKING</text>
  <rect x="20"  y="250" width="40" height="13" fill="#238636" rx="2"/>
  <text x="40"  y="260" text-anchor="middle" fill="#fff" font-size="8" font-weight="700">MERGED</text>
  <text x="81"  y="264" text-anchor="middle" fill="#56d364" font-size="9">SCTP</text>
  <text x="81"  y="276" text-anchor="middle" fill="#56d364" font-size="8">Fix typo in comment</text>
  <text x="81"  y="289" text-anchor="middle" fill="#3fb950" font-size="8">netdev / Jakub Kicinski</text>

  <!-- FILESYSTEM / XFS — MERGED -->
  <rect x="158" y="227" width="143" height="70" fill="#0f2a1a" rx="4" stroke="#238636" stroke-width="1.5"/>
  <text x="229" y="244" text-anchor="middle" fill="#3fb950" font-size="10" font-weight="700">FILESYSTEM</text>
  <rect x="168" y="250" width="40" height="13" fill="#238636" rx="2"/>
  <text x="188" y="260" text-anchor="middle" fill="#fff" font-size="8" font-weight="700">MERGED</text>
  <text x="229" y="264" text-anchor="middle" fill="#56d364" font-size="9">XFS</text>
  <text x="229" y="276" text-anchor="middle" fill="#56d364" font-size="8">Fix typo in comment</text>
  <text x="229" y="289" text-anchor="middle" fill="#3fb950" font-size="8">Carlos Maiolino · for-next</text>

  <!-- SOUND / ASoC — MERGED -->
  <rect x="306" y="227" width="143" height="70" fill="#0f2a1a" rx="4" stroke="#238636" stroke-width="1.5"/>
  <text x="377" y="244" text-anchor="middle" fill="#3fb950" font-size="10" font-weight="700">SOUND</text>
  <rect x="316" y="250" width="40" height="13" fill="#238636" rx="2"/>
  <text x="336" y="260" text-anchor="middle" fill="#fff" font-size="8" font-weight="700">MERGED</text>
  <text x="377" y="264" text-anchor="middle" fill="#56d364" font-size="9">ASoC — nau8825</text>
  <text x="377" y="276" text-anchor="middle" fill="#56d364" font-size="8">Fix typos in comments</text>
  <text x="377" y="289" text-anchor="middle" fill="#3fb950" font-size="8">broonie/sound · Linux 7.2</text>

  <!-- IIO — IN LINUX-NEXT (3 patches) -->
  <rect x="454" y="227" width="163" height="70" fill="#0a1f0a" rx="4" stroke="#2ea043" stroke-width="1.5"/>
  <text x="535" y="244" text-anchor="middle" fill="#56d364" font-size="10" font-weight="700">IIO / ADC</text>
  <rect x="464" y="250" width="66" height="13" fill="#1f4d2e" rx="2" stroke="#2ea043" stroke-width="1"/>
  <text x="497" y="260" text-anchor="middle" fill="#56d364" font-size="8" font-weight="700">IN LINUX-NEXT</text>
  <text x="535" y="264" text-anchor="middle" fill="#56d364" font-size="9">TI ADS1298 · 3 patches</text>
  <text x="535" y="276" text-anchor="middle" fill="#56d364" font-size="8">Medical biopotential ADC</text>
  <text x="535" y="289" text-anchor="middle" fill="#3fb950" font-size="8">Greg KH · char-misc-testing</text>

  <!-- SCSI — MERGED (2 patches) -->
  <rect x="622" y="227" width="143" height="70" fill="#0f2a1a" rx="4" stroke="#238636" stroke-width="1.5"/>
  <text x="693" y="244" text-anchor="middle" fill="#3fb950" font-size="10" font-weight="700">SCSI / STORAGE</text>
  <rect x="632" y="250" width="40" height="13" fill="#238636" rx="2"/>
  <text x="652" y="260" text-anchor="middle" fill="#fff" font-size="8" font-weight="700">MERGED</text>
  <text x="693" y="264" text-anchor="middle" fill="#56d364" font-size="9">2 patches</text>
  <text x="693" y="276" text-anchor="middle" fill="#56d364" font-size="8">Core + Hyper-V storvsc</text>
  <text x="693" y="289" text-anchor="middle" fill="#3fb950" font-size="8">Martin K. Petersen · 7.2</text>

  <!-- POWER SUPPLY — IN LINUX-NEXT -->
  <rect x="770" y="227" width="140" height="70" fill="#0a1f0a" rx="4" stroke="#2ea043" stroke-width="1.5"/>
  <text x="840" y="244" text-anchor="middle" fill="#56d364" font-size="10" font-weight="700">POWER SUPPLY</text>
  <rect x="780" y="250" width="66" height="13" fill="#1f4d2e" rx="2" stroke="#2ea043" stroke-width="1"/>
  <text x="813" y="260" text-anchor="middle" fill="#56d364" font-size="8" font-weight="700">IN LINUX-NEXT</text>
  <text x="840" y="264" text-anchor="middle" fill="#56d364" font-size="9">ab8500_fg</text>
  <text x="840" y="276" text-anchor="middle" fill="#56d364" font-size="8">Fix typos in comments</text>
  <text x="840" y="289" text-anchor="middle" fill="#3fb950" font-size="8">Acked-by: Linus Walleij</text>

  <!-- ── PLATFORM DRIVERS SECTION ── -->
  <text x="14" y="314" fill="#6e7681" font-size="9" font-weight="700" letter-spacing="1">PLATFORM DRIVERS</text>

  <!-- SoC / TI Keystone — APPLIED -->
  <rect x="10"  y="319" width="210" height="68" fill="#0f2a1a" rx="4" stroke="#238636" stroke-width="1.5"/>
  <text x="115" y="336" text-anchor="middle" fill="#3fb950" font-size="10" font-weight="700">SoC / TI Keystone</text>
  <rect x="20"  y="342" width="40" height="13" fill="#238636" rx="2"/>
  <text x="40"  y="352" text-anchor="middle" fill="#fff" font-size="8" font-weight="700">APPLIED</text>
  <text x="115" y="356" text-anchor="middle" fill="#56d364" font-size="9">knav_qmss_queue</text>
  <text x="115" y="368" text-anchor="middle" fill="#56d364" font-size="8">Resource cleanup in remove()</text>
  <text x="115" y="380" text-anchor="middle" fill="#3fb950" font-size="8">Nishanth Menon · ti-drivers-soc</text>

  <!-- MFD / Silicon Labs — IN LINUX-NEXT -->
  <rect x="226" y="319" width="210" height="68" fill="#0a1f0a" rx="4" stroke="#2ea043" stroke-width="1.5"/>
  <text x="331" y="336" text-anchor="middle" fill="#56d364" font-size="10" font-weight="700">MFD / Silicon Labs</text>
  <rect x="236" y="342" width="66" height="13" fill="#1f4d2e" rx="2" stroke="#2ea043" stroke-width="1"/>
  <text x="269" y="352" text-anchor="middle" fill="#56d364" font-size="8" font-weight="700">IN LINUX-NEXT</text>
  <text x="331" y="356" text-anchor="middle" fill="#56d364" font-size="9">si476x-i2c · Si476x radio</text>
  <text x="331" y="368" text-anchor="middle" fill="#56d364" font-size="8">Fix spelling in comments</text>
  <text x="331" y="380" text-anchor="middle" fill="#3fb950" font-size="8">Lee Jones · linux-next</text>

  <!-- DT Bindings / IIO Accel — UNDER REVIEW -->
  <rect x="442" y="319" width="210" height="68" fill="#0d1f3a" rx="4" stroke="#388bfd" stroke-width="1.5"/>
  <text x="547" y="336" text-anchor="middle" fill="#79c0ff" font-size="10" font-weight="700">DT Bindings / IIO</text>
  <rect x="452" y="342" width="70" height="13" fill="#1f3358" rx="2" stroke="#388bfd" stroke-width="1"/>
  <text x="487" y="352" text-anchor="middle" fill="#79c0ff" font-size="8" font-weight="700">UNDER REVIEW</text>
  <text x="547" y="356" text-anchor="middle" fill="#79c0ff" font-size="9">LIS302DL accelerometer</text>
  <text x="547" y="368" text-anchor="middle" fill="#79c0ff" font-size="8">Convert .txt → YAML schema</text>
  <text x="547" y="380" text-anchor="middle" fill="#388bfd" font-size="8">Jonathan Cameron · linux-iio</text>

  <!-- Not contributed drivers -->
  <rect x="658" y="319" width="252" height="68" fill="#1c2128" rx="4" stroke="#21262d" stroke-width="1"/>
  <text x="784" y="356" text-anchor="middle" fill="#484f58" font-size="10">Other platform drivers</text>
  <text x="784" y="370" text-anchor="middle" fill="#30363d" font-size="9">USB · I2C · SPI · GPIO · IOMMU</text>

  <!-- ── DRM / ACCELERATORS ── -->
  <text x="14" y="404" fill="#6e7681" font-size="9" font-weight="700" letter-spacing="1">DRM / AI ACCELERATORS</text>

  <!-- AMD XDNA NPU — UNDER REVIEW -->
  <rect x="10"  y="409" width="295" height="68" fill="#0d1f3a" rx="4" stroke="#388bfd" stroke-width="1.5"/>
  <text x="157" y="426" text-anchor="middle" fill="#79c0ff" font-size="10" font-weight="700">DRM Accel · AMD XDNA NPU</text>
  <rect x="20"  y="432" width="70" height="13" fill="#1f3358" rx="2" stroke="#388bfd" stroke-width="1"/>
  <text x="55"  y="442" text-anchor="middle" fill="#79c0ff" font-size="8" font-weight="700">UNDER REVIEW</text>
  <text x="157" y="446" text-anchor="middle" fill="#79c0ff" font-size="9">amdxdna — add debugfs support</text>
  <text x="157" y="458" text-anchor="middle" fill="#79c0ff" font-size="8">Implements driver TODO item</text>
  <text x="157" y="469" text-anchor="middle" fill="#388bfd" font-size="8">Lizhi Hou · dri-devel</text>

  <!-- Intel VPU (ivpu) — UNDER REVIEW -->
  <rect x="312" y="409" width="295" height="68" fill="#0d1f3a" rx="4" stroke="#388bfd" stroke-width="1.5"/>
  <text x="459" y="426" text-anchor="middle" fill="#79c0ff" font-size="10" font-weight="700">DRM Accel · Intel VPU NPU</text>
  <rect x="322" y="432" width="70" height="13" fill="#1f3358" rx="2" stroke="#388bfd" stroke-width="1"/>
  <text x="357" y="442" text-anchor="middle" fill="#79c0ff" font-size="8" font-weight="700">UNDER REVIEW</text>
  <text x="459" y="446" text-anchor="middle" fill="#79c0ff" font-size="9">ivpu — IPC exact message size</text>
  <text x="459" y="458" text-anchor="middle" fill="#79c0ff" font-size="8">Resolves driver TODO in IPC layer</text>
  <text x="459" y="469" text-anchor="middle" fill="#388bfd" font-size="8">Maciej Falkowski · dri-devel</text>

  <!-- Other DRM -->
  <rect x="614" y="409" width="296" height="68" fill="#1c2128" rx="4" stroke="#21262d" stroke-width="1"/>
  <text x="762" y="446" text-anchor="middle" fill="#484f58" font-size="10">Other DRM subsystems</text>
  <text x="762" y="460" text-anchor="middle" fill="#30363d" font-size="9">i915 · amdgpu · nouveau · v3d</text>

  <!-- ── ARCHITECTURE ── -->
  <text x="14" y="494" fill="#6e7681" font-size="9" font-weight="700" letter-spacing="1">ARCHITECTURE</text>
  <rect x="10"  y="499" width="290" height="26" fill="#161b22" rx="3" stroke="#30363d" stroke-width="1"/>
  <text x="155" y="516" text-anchor="middle" fill="#6e7681" font-size="10">ARM Cortex-A  (Nokia 5G SoC work)</text>
  <rect x="306" y="499" width="290" height="26" fill="#161b22" rx="3" stroke="#30363d" stroke-width="1"/>
  <text x="451" y="516" text-anchor="middle" fill="#6e7681" font-size="10">x86 / x64</text>
  <rect x="602" y="499" width="308" height="26" fill="#161b22" rx="3" stroke="#30363d" stroke-width="1"/>
  <text x="756" y="516" text-anchor="middle" fill="#6e7681" font-size="10">RISC-V  (Linux Foundation certified)</text>

  <!-- ── HARDWARE ── -->
  <rect x="10" y="531" width="900" height="26" fill="#1c2128" rx="3" stroke="#21262d" stroke-width="1"/>
  <text x="460" y="548" text-anchor="middle" fill="#484f58" font-size="10" letter-spacing="2">HARDWARE</text>

  <!-- ── STATS BAR ── -->
  <rect x="10" y="563" width="900" height="46" fill="#161b22" rx="4" stroke="#21262d" stroke-width="1"/>

  <!-- Merged count -->
  <rect x="25"  y="573" width="10" height="10" fill="#238636" rx="2"/>
  <text x="40"  y="583" fill="#3fb950" font-size="11" font-weight="700">7</text>
  <text x="52"  y="583" fill="#6e7681" font-size="10"> Merged</text>

  <!-- In-next count -->
  <rect x="165" y="573" width="10" height="10" fill="#1f4d2e" rx="2" stroke="#2ea043" stroke-width="1"/>
  <text x="180" y="583" fill="#56d364" font-size="11" font-weight="700">4</text>
  <text x="192" y="583" fill="#6e7681" font-size="10"> In linux-next</text>

  <!-- Under review count -->
  <rect x="335" y="573" width="10" height="10" fill="#1f3358" rx="2" stroke="#388bfd" stroke-width="1"/>
  <text x="350" y="583" fill="#79c0ff" font-size="11" font-weight="700">3</text>
  <text x="362" y="583" fill="#6e7681" font-size="10"> Under review</text>

  <!-- Total patches -->
  <text x="540" y="575" fill="#8b949e" font-size="9">TOTAL</text>
  <text x="540" y="590" fill="#f0f6fc" font-size="14" font-weight="700">14 patches</text>

  <!-- Maintainers -->
  <text x="680" y="575" fill="#8b949e" font-size="9">ACCEPTED BY</text>
  <text x="680" y="588" fill="#6e7681" font-size="9">Red Hat · Intel · Microsoft · Linaro · NXP · TI</text>

</svg>
